<svg width="26" height="23" viewBox="0 0 26 23" fill="none" xmlns="http://www.w3.org/2000/svg">
<path d="M8.75664 0C6.46022 0 4.37834 0.451357 2.82029 1.23038C1.26224 2.00941 0.13501 3.17167 0.13501 4.60718V18.4018C0.13501 19.8238 1.24983 20.9803 2.81131 21.7606C4.3728 22.541 6.45754 23 8.75664 23C10.689 23 12.467 22.67 13.9117 22.1019C15.0407 22.674 16.3156 23 17.6657 23C22.2617 23 25.9999 19.2618 25.9999 14.6658C25.9999 10.0697 22.2617 6.33151 17.6657 6.33151C17.5669 6.33151 17.4672 6.3371 17.3693 6.34049V4.60718C17.3693 3.17167 16.251 2.00941 14.693 1.23038C13.1349 0.451386 11.0531 0 8.75664 0ZM8.75664 1.15853C10.9044 1.15853 12.8447 1.60399 14.199 2.28114C15.5534 2.95832 16.2377 3.8206 16.2377 4.60718C15.9705 5.82774 15.0763 6.49934 14.199 6.92425C12.8447 7.60143 10.9044 8.04686 8.75664 8.04686C6.60891 8.04686 4.66857 7.60143 3.31424 6.92425C2.31098 6.4045 1.39763 5.61223 1.27558 4.60718C1.27558 3.8206 1.9599 2.95832 3.31424 2.28114C4.66857 1.60399 6.60891 1.15853 8.75664 1.15853ZM1.28456 6.94221C1.71027 7.33448 2.23602 7.68288 2.82029 7.97501C4.37834 8.75403 6.46022 9.20539 8.75664 9.20539C9.7526 9.20539 10.7048 9.1138 11.5946 8.95392C10.9167 9.67409 10.3672 10.5167 9.97804 11.4416C9.5805 11.4764 9.17364 11.5045 8.75664 11.5045C6.61222 11.5045 4.67481 11.0577 3.32322 10.3819C1.97162 9.70608 1.28456 8.85625 1.28456 8.05584V6.94221ZM17.6657 7.48106C21.6405 7.48106 24.8504 10.691 24.8504 14.6658C24.8504 18.6405 21.6405 21.8504 17.6657 21.8504C13.6909 21.8504 10.481 18.6405 10.481 14.6658C10.481 10.691 13.6909 7.48106 17.6657 7.48106ZM17.6028 8.90902C17.4599 8.92472 17.3281 8.99337 17.2334 9.10142C17.1386 9.20948 17.0878 9.34909 17.0909 9.49278V10.3909C16.5556 10.4707 16.068 10.6713 15.6719 10.9836C15.1381 11.4045 14.7918 12.062 14.7918 12.7978C14.7918 13.6 15.2599 14.2031 15.7976 14.5221C16.3354 14.841 16.9318 14.9926 17.4591 15.1956C18.0584 15.4264 18.6108 15.5925 18.9409 15.7884C19.2711 15.9842 19.39 16.0929 19.39 16.5338C19.39 16.9298 19.2328 17.2107 18.9409 17.4409C18.6491 17.671 18.2046 17.827 17.6657 17.827C16.7435 17.827 16.0807 17.4425 15.9144 16.893C15.8956 16.8169 15.8615 16.7454 15.8141 16.683C15.7666 16.6205 15.707 16.5685 15.6387 16.53C15.5704 16.4914 15.4949 16.4673 15.417 16.459C15.339 16.4507 15.2602 16.4585 15.1853 16.4818C15.1105 16.5051 15.0412 16.5435 14.9817 16.5946C14.9222 16.6457 14.8739 16.7084 14.8395 16.7789C14.8052 16.8494 14.7856 16.9261 14.782 17.0044C14.7785 17.0827 14.791 17.161 14.8187 17.2343C15.1201 18.2303 16.0525 18.7833 17.0909 18.9317V19.8387C17.0898 19.9149 17.1039 19.9905 17.1323 20.0612C17.1607 20.1319 17.2029 20.1962 17.2563 20.2505C17.3098 20.3047 17.3735 20.3477 17.4438 20.3771C17.5141 20.4065 17.5895 20.4217 17.6657 20.4217C17.7418 20.4217 17.8172 20.4065 17.8875 20.3771C17.9578 20.3477 18.0215 20.3047 18.075 20.2505C18.1285 20.1962 18.1706 20.1319 18.199 20.0612C18.2274 19.9905 18.2415 19.9149 18.2404 19.8387V18.9317C18.7756 18.8493 19.2634 18.6512 19.6594 18.3389C20.1932 17.918 20.5395 17.2695 20.5395 16.5338C20.5395 15.7315 20.0714 15.1194 19.5337 14.8005C18.996 14.4815 18.3995 14.3299 17.8722 14.1269C17.2729 13.8961 16.7206 13.73 16.3904 13.5342C16.0602 13.3383 15.9413 13.2386 15.9413 12.7978C15.9413 12.4018 16.0985 12.1208 16.3904 11.8907C16.6822 11.6605 17.1267 11.5045 17.6657 11.5045C18.5878 11.5045 19.2507 11.8801 19.4169 12.4295C19.4331 12.5078 19.4654 12.5817 19.5118 12.6468C19.5581 12.7118 19.6175 12.7665 19.6862 12.8073C19.7548 12.8481 19.8313 12.8742 19.9105 12.8838C19.9898 12.8934 20.0703 12.8864 20.1467 12.8632C20.2231 12.84 20.2939 12.8012 20.3545 12.7491C20.4151 12.6971 20.4641 12.633 20.4986 12.5609C20.533 12.4888 20.552 12.4104 20.5544 12.3306C20.5568 12.2507 20.5426 12.1713 20.5126 12.0972C20.2112 11.1013 19.2788 10.5482 18.2404 10.3998V9.49278C18.2422 9.41095 18.2265 9.3297 18.1943 9.25445C18.1621 9.1792 18.1143 9.11168 18.0539 9.05641C17.9935 9.00115 17.9221 8.95942 17.8443 8.934C17.7665 8.90858 17.6841 8.90006 17.6028 8.90902ZM1.28456 10.3909C1.70765 10.7801 2.23014 11.1241 2.81131 11.4147C4.3721 12.1951 6.4569 12.6541 8.75664 12.6541C9.03745 12.6541 9.30976 12.6411 9.58288 12.627C9.41861 13.2789 9.33142 13.9634 9.33142 14.6657C9.33142 14.7585 9.33739 14.852 9.34038 14.9441C9.14764 14.9516 8.95452 14.953 8.75664 14.953C6.61222 14.953 4.67481 14.5062 3.32322 13.8304C1.97164 13.1548 1.28456 12.3049 1.28456 11.5045V10.3909ZM1.28456 13.8395C1.70765 14.2287 2.23014 14.5728 2.81131 14.8633C4.3721 15.6437 6.45691 16.1027 8.75664 16.1027C8.99241 16.1027 9.22701 16.0958 9.45715 16.0849C9.59359 16.8767 9.84098 17.631 10.1846 18.3301C9.72107 18.3762 9.24701 18.4019 8.75664 18.4019C6.61222 18.4019 4.67481 17.9551 3.32322 17.2793C1.97162 16.6034 1.28456 15.7536 1.28456 14.9531V13.8395ZM1.28456 17.2882C1.70765 17.6774 2.23014 18.0214 2.81131 18.312C4.3721 19.0924 6.4569 19.5513 8.75664 19.5513C9.47238 19.5513 10.1674 19.5107 10.8312 19.4256C11.3363 20.1495 11.9509 20.7802 12.6543 21.3116C11.5209 21.6448 10.1863 21.8504 8.75664 21.8504C6.6129 21.8504 4.67564 21.4037 3.32322 20.7278C1.97079 20.052 1.28456 19.2019 1.28456 18.4018V17.2882Z" fill="#989FA7"/>
</svg>
