<svg width="20" height="18" viewBox="0 0 20 18" fill="none" xmlns="http://www.w3.org/2000/svg">
<path fill-rule="evenodd" clip-rule="evenodd" d="M1.5 6.5V1.5H7.5V6.5H1.5ZM0 1C0 0.447715 0.447715 0 1 0H8C8.55229 0 9 0.447715 9 1V7C9 7.55228 8.55229 8 8 8H1C0.447715 8 0 7.55228 0 7V1ZM1.5 16.5V11.5H7.5V16.5H1.5ZM0 11C0 10.4477 0.447715 10 1 10H8C8.55229 10 9 10.4477 9 11V17C9 17.5523 8.55229 18 8 18H1C0.447715 18 0 17.5523 0 17V11ZM12.5 1.5V6.5H18.5V1.5H12.5ZM12 0C11.4477 0 11 0.447715 11 1V7C11 7.55228 11.4477 8 12 8H19C19.5523 8 20 7.55228 20 7V1C20 0.447715 19.5523 0 19 0H12ZM12.5 16.5V11.5H18.5V16.5H12.5ZM11 11C11 10.4477 11.4477 10 12 10H19C19.5523 10 20 10.4477 20 11V17C20 17.5523 19.5523 18 19 18H12C11.4477 18 11 17.5523 11 17V11Z" fill="#989FA7"/>
</svg>
