<svg width="20" height="20" viewBox="0 0 20 20" fill="none" xmlns="http://www.w3.org/2000/svg">
<path opacity="0.5" fill-rule="evenodd" clip-rule="evenodd" d="M12.2927 19.736C16.7105 18.6996 20 14.734 20 10C20 4.47715 15.5228 0 10 0C4.47715 0 0 4.47715 0 10C0 15.2451 4.0382 19.5471 9.17521 19.9665L9.18479 14.3958H7.32802C7.08672 14.3958 6.89087 14.2007 6.88994 13.9594L6.88103 11.6557C6.8801 11.4131 7.07654 11.2159 7.31916 11.2159H9.17256V8.98987C9.17256 6.40661 10.7503 5 13.0547 5H14.9457C15.1876 5 15.3838 5.19614 15.3838 5.43813V7.38066C15.3838 7.62255 15.1877 7.81865 14.9459 7.81879L13.7854 7.81933C12.5322 7.81933 12.2895 8.41485 12.2895 9.28881V11.2159H15.0433C15.3057 11.2159 15.5093 11.4451 15.4784 11.7056L15.2053 14.0094C15.1792 14.2298 14.9922 14.3959 14.7703 14.3959H12.3018L12.2927 19.736Z" fill="#323F50"/>
</svg>
