<svg width="21" height="21" viewBox="0 0 21 21" fill="none" xmlns="http://www.w3.org/2000/svg">
<path fill-rule="evenodd" clip-rule="evenodd" d="M19.5 10.5C19.5 15.4706 15.4706 19.5 10.5 19.5C5.52944 19.5 1.5 15.4706 1.5 10.5C1.5 5.52944 5.52944 1.5 10.5 1.5C15.4706 1.5 19.5 5.52944 19.5 10.5ZM21 10.5C21 16.299 16.299 21 10.5 21C4.70101 21 0 16.299 0 10.5C0 4.70101 4.70101 0 10.5 0C16.299 0 21 4.70101 21 10.5ZM9.99219 11C9.82031 11.4115 9.73438 11.9635 9.73438 12.6562H11.5078C11.5182 11.9062 11.6953 11.3359 12.0391 10.9453L13 10C13.7917 9.17708 14.1875 8.34115 14.1875 7.49219C14.1875 6.53906 13.8932 5.79688 13.3047 5.26562C12.7214 4.73438 11.9062 4.46875 10.8594 4.46875C9.84375 4.46875 9.02604 4.73698 8.40625 5.27344C7.79167 5.8099 7.47917 6.53906 7.46875 7.46094H9.36719C9.36719 7.02865 9.5026 6.6875 9.77344 6.4375C10.0495 6.18229 10.4115 6.05469 10.8594 6.05469C11.3281 6.05469 11.6823 6.1849 11.9219 6.44531C12.1667 6.70052 12.2891 7.07292 12.2891 7.5625C12.2891 7.93229 12.1849 8.27604 11.9766 8.59375C11.8411 8.80208 11.5182 9.15365 11.0078 9.64844C10.5026 10.138 10.1641 10.5885 9.99219 11ZM9.89062 14.3438C9.69792 14.5312 9.60156 14.7786 9.60156 15.0859C9.60156 15.3724 9.69271 15.612 9.875 15.8047C10.0625 15.9974 10.3281 16.0938 10.6719 16.0938C11.0156 16.0938 11.2812 15.9974 11.4688 15.8047C11.6562 15.612 11.75 15.3724 11.75 15.0859C11.75 14.7891 11.6536 14.5443 11.4609 14.3516C11.2682 14.1536 11.0052 14.0547 10.6719 14.0547C10.3438 14.0547 10.0833 14.151 9.89062 14.3438Z" fill="#989FA7"/>
</svg>
