<svg width="20" height="20" viewBox="0 0 20 20" fill="none" xmlns="http://www.w3.org/2000/svg">
<path opacity="0.5" fill-rule="evenodd" clip-rule="evenodd" d="M10.0331 0C4.48144 0 0 4.48144 0 10.0331C0 14.4476 2.87615 18.1933 6.88938 19.5311C7.42447 19.5979 7.55825 19.3304 7.55825 19.0628V17.3238C4.74899 17.9258 4.147 15.986 4.147 15.986C3.67879 14.849 3.00992 14.5145 3.00992 14.5145C2.0735 13.9125 3.07681 13.9125 3.07681 13.9125C4.08012 13.9794 4.61521 14.9158 4.61521 14.9158C5.48475 16.4542 6.95626 15.986 7.55825 15.7185C7.62514 15.0496 7.89268 14.6483 8.22712 14.3807C6.01984 14.1132 3.67879 13.2437 3.67879 9.43109C3.67879 8.3609 4.08012 7.42448 4.6821 6.7556C4.54833 6.48806 4.21389 5.48475 4.74899 4.08012C4.74899 4.08012 5.61852 3.81257 7.49136 5.08343C8.29401 4.88276 9.16354 4.74899 10.0331 4.74899C10.9026 4.74899 11.7721 4.88276 12.5748 5.08343C14.5145 3.81257 15.3172 4.08012 15.3172 4.08012C15.8523 5.48475 15.5178 6.48806 15.384 6.7556C16.0529 7.42448 16.3874 8.3609 16.3874 9.43109C16.3874 13.3105 14.0463 14.1132 11.839 14.3807C12.1735 14.7152 12.5079 15.3172 12.5079 16.2536V18.996C12.5079 19.2635 12.7086 19.5979 13.1768 19.4642C17.19 18.1264 19.9993 14.3807 19.9993 9.96619C20.0661 4.48144 15.5847 0 10.0331 0Z" fill="#323F50"/>
</svg>
