<svg width="19" height="22" viewBox="0 0 19 22" fill="none" xmlns="http://www.w3.org/2000/svg">
<path d="M4.97965 19.6863H5.71376V13.968C5.71376 13.5816 6.02286 13.3112 6.37059 13.3112H13.248C13.6344 13.3112 13.9049 13.5816 13.9049 13.968V19.6863H17.3436V8.94514L9.80932 2.53134L2.31367 8.94514V19.6863H4.97965ZM6.37059 21H1.65684C1.27046 21 1 20.7295 1 20.3432V8.63604C1 8.44285 1.07727 8.24967 1.27046 8.13375L9.38431 1.14039C9.65477 0.947203 10.0025 0.947203 10.2343 1.17903L18.4255 8.17239C18.58 8.2883 18.6573 8.48149 18.6573 8.63604V20.3432C18.6573 20.7295 18.3482 21 18.0004 21H13.248C12.9003 21 12.5912 20.7295 12.5912 20.3432V14.5862H7.02743V20.3432C7.02743 20.7295 6.75697 21 6.37059 21Z" fill="#989FA7" stroke="black" stroke-width="0.2"/>
</svg>
