<?xml version="1.0" standalone="no"?><!DOCTYPE svg PUBLIC "-//W3C//DTD SVG 1.1//EN" "http://www.w3.org/Graphics/SVG/1.1/DTD/svg11.dtd"><svg t="1598925105775" class="icon" viewBox="0 0 1024 1024" version="1.1" xmlns="http://www.w3.org/2000/svg" p-id="1078" width="200" height="200" xmlns:xlink="http://www.w3.org/1999/xlink"><defs><style type="text/css"></style></defs><path d="M243.332583 594.004749l582.695163 0 0 53.428321L243.332583 647.433071 243.332583 594.004749 243.332583 594.004749 243.332583 594.004749 243.332583 594.004749zM241.912761 798.973128l582.690164 0 1.349831 57.292838L243.332583 856.265967 241.912761 798.973128 241.912761 798.973128 241.912761 798.973128 241.912761 798.973128zM556.588426 384.355956l269.44032 0 0 54.308211L556.588426 438.664167 556.588426 384.355956 556.588426 384.355956 556.588426 384.355956 556.588426 384.355956zM614.48019 174.573178l211.547557 0 0 55.320085L614.48019 229.893263 614.48019 174.573178 614.48019 174.573178 614.48019 174.573178 614.48019 174.573178zM874.647669 1024 167.695038 1024c-46.589176 0-84.441445-39.750031-84.441445-88.508936L83.253593 88.508936C83.253593 39.750031 121.105862 0 167.695038 0l706.952631 0c46.589176 0 84.439445 39.750031 84.439445 88.508936l0 846.917135C959.087114 984.249969 921.166854 1024 874.647669 1024L874.647669 1024 874.647669 1024 874.647669 1024zM156.794401 53.563305c-9.548806 0-17.539808 10.023747-17.539808 21.807274l0 873.258843c0 11.853518 8.058993 21.807274 17.539808 21.807274l728.821897 0c9.548806 0 17.537808-10.023747 17.537808-21.807274L903.154106 75.370579c0-11.850519-8.058993-21.807274-17.537808-21.807274L156.794401 53.563305 156.794401 53.563305 156.794401 53.563305 156.794401 53.563305zM470.519185 328.622922c7.651044 13.070366 11.580552 28.376453 11.580552 45.914261 0 26.816648-7.991001 49.225847-23.972003 67.108611-16.049994 17.874766-39.072116 28.503437-69.341332 31.686039l0 45.981252-38.462192 0 0-45.776278c-50.313711-5.214348-81.529809-34.467692-93.515311-87.75603l59.51956-15.578053c5.486314 33.52081 23.702037 50.313711 54.71816 50.313711 14.488189 0 25.188851-3.589551 32.027997-10.768654 6.839145-7.241095 10.293713-15.84302 10.293713-26.00175 0-10.56368-3.454568-18.484689-10.293713-23.83702-6.771154-5.419323-22.007249-12.253468-45.504312-20.584427-21.129359-7.379078-37.720285-14.628171-49.635796-21.872266-11.850519-7.111111-21.534308-17.132858-28.981377-30.063242-7.449069-12.935383-11.105612-28.036495-11.105612-45.101362 0-22.47919 6.701162-42.79665 19.909511-60.739408 13.338333-18.012748 34.122735-29.051369 62.634171-33.045869l0-35.482565 38.462192 0 0 35.482565c42.999625 5.149356 70.901137 29.456318 83.631546 72.995876l-53.160355 21.804274c-10.358705-29.858268-26.271716-44.826397-48.010999-44.826397-10.833646 0-19.569554 3.319585-26.068741 10.023747-6.634171 6.701162-9.953756 14.763155-9.953756 24.24197 0 9.68079 3.179603 17.064867 9.548806 22.277215 6.364204 5.146357 19.904512 11.580552 40.761905 19.164604 22.822147 8.330959 40.834896 16.31996 53.768279 23.632046C452.373453 305.263842 462.665167 315.554556 470.519185 328.622922L470.519185 328.622922 470.519185 328.622922 470.519185 328.622922z" p-id="1079" fill="#989FA7"></path></svg>