<svg width="16" height="21" viewBox="0 0 16 21" fill="none" xmlns="http://www.w3.org/2000/svg">
<path fill-rule="evenodd" clip-rule="evenodd" d="M8.40005 0.533363C8.20005 0.26667 7.80005 0.26667 7.60005 0.533363L5.60005 3.20002C5.35284 3.52964 5.58803 4.00001 6.00005 4.00001H7.25V8.75001C7.25 8.88807 7.36193 9.00001 7.5 9.00001H8.5C8.63807 9.00001 8.75 8.88807 8.75 8.75001V4.00001H10.0001C10.4121 4.00001 10.6473 3.52964 10.4001 3.20002L8.40005 0.533363ZM1.5 8.50001C1.5 8.38331 1.55214 8.22868 1.73586 8.03672C1.92186 7.84238 2.21735 7.63874 2.629 7.44456C3.4069 7.07761 4.46818 6.69337 5.77654 6.52616C5.90335 6.50996 6 6.40302 6 6.27518V5.77799C6 5.62946 5.87123 5.5135 5.72395 5.53266C4.3512 5.71143 3.09808 6.11762 2.20238 6.54011C1.72547 6.76508 1.31312 7.03214 1.01341 7.34528C0.711418 7.66084 0.5 8.05045 0.5 8.50001C0.5 9.04945 0.813175 9.50529 1.22752 9.85514C1.28605 9.90455 1.34766 9.95286 1.41219 10C1.26175 10.11 1.12597 10.2269 1.00787 10.3511C0.708851 10.6655 0.5 11.0532 0.5 11.5C0.5 12.0494 0.813175 12.5053 1.22752 12.8551C1.28617 12.9047 1.34793 12.953 1.4126 13.0003C0.886608 13.3851 0.5 13.8827 0.5 14.5C0.5 15.0494 0.813175 15.5053 1.22752 15.8551C1.28605 15.9045 1.34768 15.9529 1.41221 16C1.2517 16.1173 1.10769 16.2427 0.983978 16.3766C0.697826 16.6863 0.5 17.0654 0.5 17.5C0.5 18.0494 0.813175 18.5053 1.22752 18.8551C1.64418 19.207 2.21745 19.5013 2.88208 19.7387C4.21571 20.2149 6.02521 20.5 8 20.5C9.97479 20.5 11.7843 20.2149 13.1179 19.7387C13.7825 19.5013 14.3558 19.207 14.7725 18.8551C15.1868 18.5053 15.5 18.0494 15.5 17.5C15.5 17.0654 15.3022 16.6863 15.016 16.3766C14.8923 16.2427 14.7483 16.1173 14.5878 16C14.6523 15.9529 14.714 15.9045 14.7725 15.8551C15.1868 15.5053 15.5 15.0494 15.5 14.5C15.5 13.8827 15.1134 13.3851 14.5874 13.0003C14.6521 12.953 14.7138 12.9047 14.7725 12.8551C15.1868 12.5053 15.5 12.0494 15.5 11.5C15.5 11.0532 15.2911 10.6655 14.9921 10.3511C14.874 10.2269 14.7383 10.11 14.5878 10C14.6523 9.95286 14.714 9.90455 14.7725 9.85514C15.1868 9.50529 15.5 9.04945 15.5 8.50001C15.5 8.05045 15.2886 7.66084 14.9866 7.34528C14.6869 7.03214 14.2745 6.76508 13.7976 6.54011C12.9019 6.11762 11.6488 5.71143 10.2761 5.53266C10.1288 5.5135 10 5.62946 10 5.77799V6.27518C10 6.40302 10.0966 6.50996 10.2235 6.52616C11.5318 6.69337 12.5931 7.07761 13.371 7.44456C13.7827 7.63874 14.0781 7.84238 14.2641 8.03672C14.4479 8.22868 14.5 8.38331 14.5 8.50001C14.5 8.64094 14.4214 8.84275 14.1273 9.0911C13.8356 9.33747 13.3837 9.58186 12.7816 9.79691C11.5817 10.2254 9.8912 10.5 8 10.5C6.1088 10.5 4.4183 10.2254 3.21842 9.79691C2.6163 9.58186 2.16445 9.33747 1.87267 9.0911C1.57858 8.84275 1.5 8.64094 1.5 8.50001ZM13.589 10.5539C13.4381 10.6189 13.2808 10.6805 13.1179 10.7387C11.7843 11.2149 9.97479 11.5 8 11.5C6.02521 11.5 4.21571 11.2149 2.88208 10.7387C2.71925 10.6805 2.56189 10.6189 2.41098 10.5539C2.10863 10.7156 1.8838 10.8811 1.73254 11.0402C1.55151 11.2306 1.5 11.3839 1.5 11.5C1.5 11.6409 1.57858 11.8428 1.87267 12.0911C2.16445 12.3374 2.6163 12.5819 3.21842 12.7969C4.4183 13.2254 6.1088 13.5 8 13.5C9.8912 13.5 11.5817 13.2254 12.7816 12.7969C13.3837 12.5819 13.8356 12.3374 14.1273 12.0911C14.4214 11.8428 14.5 11.6409 14.5 11.5C14.5 11.3839 14.4485 11.2306 14.2675 11.0402C14.1162 10.8811 13.8914 10.7156 13.589 10.5539ZM13.1179 13.7386C13.2808 13.6805 13.4381 13.6189 13.589 13.5539C14.3013 13.9345 14.5 14.2846 14.5 14.5C14.5 14.6409 14.4214 14.8428 14.1273 15.0911C13.8356 15.3374 13.3837 15.5819 12.7816 15.7969C11.5817 16.2254 9.8912 16.5 8 16.5C6.1088 16.5 4.4183 16.2254 3.21842 15.7969C2.6163 15.5819 2.16445 15.3374 1.87267 15.0911C1.57858 14.8428 1.5 14.6409 1.5 14.5C1.5 14.2846 1.69872 13.9345 2.41099 13.5539C2.5619 13.6189 2.71925 13.6805 2.88208 13.7386C4.21571 14.2149 6.02521 14.5 8 14.5C9.97479 14.5 11.7843 14.2149 13.1179 13.7386ZM13.589 16.5539C13.4381 16.6189 13.2807 16.6805 13.1179 16.7386C11.7843 17.2149 9.97479 17.5 8 17.5C6.02521 17.5 4.21571 17.2149 2.88208 16.7386C2.71926 16.6805 2.56194 16.6189 2.41104 16.5539C2.09807 16.7212 1.86905 16.8923 1.71842 17.0552C1.54881 17.2388 1.5 17.3868 1.5 17.5C1.5 17.6409 1.57858 17.8428 1.87267 18.0911C2.16445 18.3375 2.6163 18.5819 3.21842 18.7969C4.4183 19.2254 6.1088 19.5 8 19.5C9.8912 19.5 11.5817 19.2254 12.7816 18.7969C13.3837 18.5819 13.8356 18.3375 14.1273 18.0911C14.4214 17.8428 14.5 17.6409 14.5 17.5C14.5 17.3868 14.4512 17.2388 14.2816 17.0552C14.131 16.8923 13.9019 16.7212 13.589 16.5539Z" fill="#989FA7"/>
</svg>
