<svg width="20" height="20" viewBox="0 0 20 20" fill="none" xmlns="http://www.w3.org/2000/svg">
<path opacity="0.5" fill-rule="evenodd" clip-rule="evenodd" d="M10 20C15.5228 20 20 15.5228 20 10C20 4.47715 15.5228 0 10 0C4.47715 0 0 4.47715 0 10C0 15.5228 4.47715 20 10 20ZM12.808 15.2551C12.6282 15.3271 12.4265 15.2978 12.2699 15.1805C11.2851 14.4377 9.54875 13.0897 9.54875 13.0897L8.04378 14.5942C7.93927 14.6987 7.78955 14.7394 7.64955 14.7008C7.50907 14.6616 7.40261 14.5484 7.35643 14.4043C6.98846 13.2565 6.28264 10.9995 6.28264 10.9995C6.28264 10.9995 4.77233 10.4925 3.62173 10.1281C3.45499 10.0751 3.3393 9.91707 3.33347 9.73486C3.32812 9.55317 3.43409 9.38743 3.59694 9.32361C4.96321 8.7883 7.38198 7.83087 9.65262 6.93206C11.6459 6.14306 13.525 5.39924 14.4778 5.02581C14.61 4.97383 14.7583 5.00162 14.8652 5.09787C14.9722 5.19412 15.0208 5.3439 14.9916 5.48802C14.8029 6.42657 14.4599 8.18629 14.1096 9.98351C13.7463 11.8478 13.3751 13.7525 13.16 14.8227C13.1201 15.0199 12.9879 15.1825 12.808 15.2551ZM7.73413 13.5648L6.91797 10.7143L12.6996 6.80464C12.7594 6.76449 12.8392 6.77839 12.8824 6.83758C12.9262 6.89677 12.9189 6.98118 12.8664 7.03162C11.0688 8.74817 7.91545 11.7597 7.91545 11.7597L7.73413 13.5648Z" fill="#323F50"/>
</svg>
