<svg width="20" height="20" viewBox="0 0 20 20" fill="none" xmlns="http://www.w3.org/2000/svg">
<path opacity="0.5" fill-rule="evenodd" clip-rule="evenodd" d="M10 20C15.5228 20 20 15.5228 20 10C20 4.47715 15.5228 0 10 0C4.47715 0 0 4.47715 0 10C0 15.5228 4.47715 20 10 20ZM14.6393 8.3542C14.6441 8.4609 14.6457 8.56923 14.6457 8.67917C14.6457 12.0032 12.2397 15.8334 7.83639 15.8334C6.4839 15.8334 5.22674 15.4114 4.16672 14.6838C4.35255 14.7081 4.54484 14.721 4.73713 14.721C5.85694 14.7243 6.88949 14.3185 7.70874 13.6394C6.66326 13.6152 5.77776 12.8731 5.47397 11.8577C5.62102 11.8885 5.76968 11.9046 5.9248 11.9062C6.14295 11.9079 6.35463 11.8771 6.555 11.8205C5.46105 11.578 4.63533 10.5401 4.63533 9.30162V9.26929C4.95851 9.4633 5.32693 9.58294 5.71959 9.60072C5.07647 9.13509 4.65472 8.34773 4.65472 7.46174C4.65472 6.99288 4.7743 6.55473 4.97951 6.18126C6.15911 7.74306 7.92203 8.77941 9.9128 8.90713C9.8724 8.71959 9.8514 8.52719 9.8514 8.32833C9.8514 6.92821 10.9227 5.81264 12.2445 5.83365C12.9329 5.84659 13.555 6.16186 13.9913 6.65821C14.5358 6.55473 15.0481 6.35425 15.5102 6.07294C15.3325 6.65659 14.9527 7.14324 14.4583 7.44719C14.943 7.39222 15.4036 7.26288 15.8334 7.07048C15.5134 7.57006 15.1062 8.00497 14.6393 8.3542Z" fill="#323F50"/>
</svg>
